<svg viewBox="0 0 23 19" xmlns="http://www.w3.org/2000/svg">
  <path d="M16.7998 17.2217C16.9492 18.5225 17.6436 19.1289 18.9531 18.9531L20.377 18.7773C21.6777 18.6016 22.2227 17.9072 22.082 16.6064L20.6846 4.28418C20.5352 2.99219 19.832 2.37695 18.5225 2.55273L17.0986 2.72852C16.7207 2.78125 16.4043 2.87793 16.1494 3.01855V2.48242C16.1494 1.18164 15.5166 0.522461 14.207 0.522461H12.0625C10.7529 0.522461 10.1113 1.18164 10.1113 2.48242V5.76953C9.93555 5.73438 9.75098 5.7168 9.54004 5.7168H5.69922C5.48828 5.7168 5.29492 5.73438 5.11914 5.76953V4.80273C5.11914 3.49316 4.47754 2.83398 3.17676 2.83398H2.06934C0.759766 2.83398 0.118164 3.49316 0.118164 4.80273V16.9756C0.118164 18.2852 0.759766 18.9443 2.06934 18.9443H14.207C15.5166 18.9443 16.1494 18.2852 16.1494 16.9756V11.5703L16.7998 17.2217ZM12.2295 1.88477H14.0312C14.541 1.88477 14.7871 2.14844 14.7871 2.62305V16.835C14.7871 17.3184 14.541 17.582 14.0312 17.582H11.4824V2.62305C11.4824 2.14844 11.7285 1.88477 12.2295 1.88477ZM18.1357 16.9229L16.7646 4.87305C16.7119 4.39844 16.9229 4.13477 17.4238 4.06445L18.5137 3.93262C19.0059 3.85352 19.2871 4.1084 19.3398 4.57422L20.7109 16.624C20.7637 17.1074 20.5527 17.3623 20.0518 17.4414L18.9619 17.5732C18.4609 17.6436 18.1885 17.4062 18.1357 16.9229ZM2.23633 17.582C1.73535 17.582 1.48926 17.3184 1.48926 16.835V4.93457C1.48926 4.45996 1.73535 4.20508 2.23633 4.20508H3.00098C3.51074 4.20508 3.74805 4.45996 3.74805 4.93457V17.582H2.23633ZM5.86621 7.0791H9.36426C9.87402 7.0791 10.1113 7.34277 10.1113 7.81738V17.582H5.11914V7.81738C5.11914 7.34277 5.36523 7.0791 5.86621 7.0791ZM6.37598 9.19727H8.88086C9.1709 9.19727 9.39941 8.96875 9.39941 8.66992C9.39941 8.38867 9.1709 8.16016 8.88086 8.16016H6.37598C6.06836 8.16016 5.84863 8.38867 5.84863 8.66992C5.84863 8.96875 6.06836 9.19727 6.37598 9.19727ZM6.37598 16.5098H8.88086C9.1709 16.5098 9.39941 16.2725 9.39941 15.9824C9.39941 15.6924 9.1709 15.4639 8.88086 15.4639H6.37598C6.06836 15.4639 5.84863 15.6924 5.84863 15.9824C5.84863 16.2725 6.06836 16.5098 6.37598 16.5098Z" fill="currentColor"/>
</svg>
