<svg viewBox="0 0 19 19" xmlns="http://www.w3.org/2000/svg">
  <path d="M5.27734 18.1816C5.7168 18.1816 6.01562 17.9619 6.54297 17.4961L9.4082 14.9473H14.6377C17.1162 14.9473 18.4785 13.5586 18.4785 11.1064V4.70801C18.4785 2.26465 17.1162 0.867188 14.6377 0.867188H3.95898C1.48047 0.867188 0.118164 2.25586 0.118164 4.70801V11.1064C0.118164 13.5586 1.48926 14.9473 3.94141 14.9473H4.31934V17.0742C4.31934 17.751 4.6709 18.1816 5.27734 18.1816ZM5.64648 16.5469V14.1562C5.64648 13.6816 5.46191 13.5059 4.99609 13.5059H3.98535C2.33301 13.5059 1.56836 12.6709 1.56836 11.0889V4.72559C1.56836 3.14355 2.33301 2.30859 3.98535 2.30859H14.6113C16.2461 2.30859 17.0283 3.14355 17.0283 4.72559V11.0889C17.0283 12.6709 16.2461 13.5059 14.6113 13.5059H9.33789C8.86328 13.5059 8.62598 13.5762 8.29199 13.9189L5.64648 16.5469ZM5.25098 9.11133C5.91895 9.11133 6.45508 8.5752 6.45508 7.90723C6.45508 7.23926 5.91895 6.70312 5.25098 6.70312C4.5918 6.70312 4.04688 7.23926 4.04688 7.90723C4.04688 8.5752 4.5918 9.11133 5.25098 9.11133ZM9.30273 9.11133C9.9707 9.11133 10.5068 8.5752 10.5068 7.90723C10.5068 7.23926 9.9707 6.70312 9.30273 6.70312C8.63477 6.70312 8.09863 7.23926 8.09863 7.90723C8.09863 8.5752 8.63477 9.11133 9.30273 9.11133ZM13.3545 9.11133C14.0137 9.11133 14.5586 8.5752 14.5586 7.90723C14.5586 7.23926 14.0137 6.70312 13.3545 6.70312C12.6865 6.70312 12.1416 7.23926 12.1416 7.90723C12.1416 8.5752 12.6865 9.11133 13.3545 9.11133Z" fill="currentColor"/>
</svg>
