<svg viewBox="0 0 20 16" xmlns="http://www.w3.org/2000/svg">
  <path d="M2.77246 15.7051H17.1074C18.8652 15.7051 19.7617 14.8174 19.7617 13.0771V2.93457C19.7617 1.20312 18.8652 0.31543 17.1074 0.31543H2.77246C1.01465 0.31543 0.118164 1.19434 0.118164 2.93457V13.0771C0.118164 14.8174 1.01465 15.7051 2.77246 15.7051ZM2.8252 14.2549C2.0166 14.2549 1.56836 13.8242 1.56836 12.9805V3.03125C1.56836 2.1875 2.0166 1.76562 2.8252 1.76562H17.0547C17.8545 1.76562 18.3115 2.1875 18.3115 3.03125V12.9805C18.3115 13.8242 17.8545 14.2549 17.0547 14.2549H2.8252ZM13.1436 8.4541C13.4951 8.25195 13.4863 7.75977 13.1436 7.55762L8.38867 4.74512C8.02832 4.53418 7.55371 4.70117 7.55371 5.10547V10.8975C7.55371 11.3018 8.00195 11.4863 8.38867 11.2578L13.1436 8.4541Z" fill="currentColor"/>
</svg>
