<svg width="20" height="16" viewBox="0 0 20 16" fill="none" xmlns="http://www.w3.org/2000/svg">
  <path d="M2.77246 15.7051H17.1074C18.8652 15.7051 19.7617 14.8174 19.7617 13.0771V2.93457C19.7617 1.20312 18.8652 0.31543 17.1074 0.31543H2.77246C1.01465 0.31543 0.118164 1.19434 0.118164 2.93457V13.0771C0.118164 14.8174 1.01465 15.7051 2.77246 15.7051ZM2.8252 14.2549C2.0166 14.2549 1.56836 13.8242 1.56836 12.9805V3.03125C1.56836 2.1875 2.0166 1.76562 2.8252 1.76562H17.0547C17.8545 1.76562 18.3115 2.1875 18.3115 3.03125V12.9805C18.3115 13.8242 17.8545 14.2549 17.0547 14.2549H2.8252ZM7.58887 11.249H8.42383C8.83691 11.249 9.03906 11.0205 9.03906 10.6865V5.29883C9.03906 4.96484 8.83691 4.73633 8.42383 4.73633H7.58887C7.17578 4.73633 6.98242 4.96484 6.98242 5.29883V10.6865C6.98242 11.0205 7.17578 11.249 7.58887 11.249ZM11.4824 11.249H12.3086C12.7217 11.249 12.915 11.0205 12.915 10.6865V5.29883C12.915 4.96484 12.7217 4.73633 12.3086 4.73633H11.4824C11.0605 4.73633 10.8584 4.96484 10.8584 5.29883V10.6865C10.8584 11.0205 11.0605 11.249 11.4824 11.249Z" fill="#eee"/>
</svg>
