<svg width="14" height="16" viewBox="0 0 14 16" fill="none" xmlns="http://www.w3.org/2000/svg">
  <path
    d="M0.485352 4.49023C0.485352 7.00391 2.27832 8.67383 4.98535 8.67383H6.25977V15.125C6.25977 15.6348 6.56738 15.96 7.07715 15.96C7.58691 15.96 7.91211 15.6348 7.91211 15.125V1.96777H9.67871V15.125C9.67871 15.6348 9.99512 15.96 10.5049 15.96C11.0146 15.96 11.3398 15.6348 11.3398 15.125V1.96777H12.7021C13.2207 1.96777 13.5459 1.63379 13.5459 1.12402C13.5459 0.623047 13.2207 0.306641 12.7021 0.306641H4.93262C2.25195 0.306641 0.485352 1.96777 0.485352 4.49023Z"
    fill="#eee"
    />
</svg>
