<svg viewBox="0 0 17 18">
  <path fill="currentColor" d="M13.3174 11.8447C8.85254 11.8447 6.00488 9.05859 6.00488 4.60254C6.00488 3.66211 6.22461 2.35254 6.52344 1.6582C6.61133 1.46484 6.62891 1.33301 6.62891 1.24512C6.62891 1.00781 6.45312 0.75293 6.12793 0.75293C6.02246 0.75293 5.82031 0.779297 5.62695 0.849609C2.55078 2.08008 0.485352 5.37598 0.485352 8.85645C0.485352 13.7344 4.20312 17.2324 9.07227 17.2324C12.6318 17.2324 15.7344 15.0791 16.7803 12.3457C16.8594 12.1436 16.877 11.9414 16.877 11.8535C16.877 11.5371 16.6309 11.335 16.3848 11.335C16.2617 11.335 16.1562 11.3525 15.9893 11.4141C15.3564 11.625 14.3281 11.8447 13.3174 11.8447Z" />
</svg>
