<svg  viewBox="0 0 30 30" fill="none" xmlns="http://www.w3.org/2000/svg">
<rect width="30" height="30" fill="black" fill-opacity="0"/>
<path d="M0 15C0 8.42504 0 5.13755 1.81592 2.92485C2.14835 2.51978 2.51978 2.14835 2.92485 1.81592C5.13755 0 8.42504 0 15 0C21.575 0 24.8624 0 27.0751 1.81592C27.4802 2.14835 27.8516 2.51978 28.1841 2.92485C30 5.13755 30 8.42504 30 15C30 21.575 30 24.8624 28.1841 27.0751C27.8516 27.4802 27.4802 27.8516 27.0751 28.1841C24.8624 30 21.575 30 15 30C8.42504 30 5.13755 30 2.92485 28.1841C2.51978 27.8516 2.14835 27.4802 1.81592 27.0751C0 24.8624 0 21.575 0 15Z" fill="url(#paint0_linear)"/>
<path fill-rule="evenodd" clip-rule="evenodd" d="M22 15L8 23V15L22 7V15Z" fill="white"/>
<defs>
<linearGradient id="paint0_linear" x1="-51" y1="83" x2="30" y2="-2.5034e-06" gradientUnits="userSpaceOnUse">
<stop stop-color="#0057FF"/>
<stop offset="1" stop-color="#00B2FF"/>
</linearGradient>
</defs>
</svg>
